<?xml version="1.0" encoding="UTF-8" standalone="no"?>
<svg width="25px" height="28px" viewBox="0 0 25 28" version="1.1" xmlns="http://www.w3.org/2000/svg" xmlns:xlink="http://www.w3.org/1999/xlink">
    <!-- Generator: Sketch 49.1 (51147) - http://www.bohemiancoding.com/sketch -->
    <title>account3</title>
    <desc>Created with Sketch.</desc>
    <defs></defs>
    <g id="account3" stroke="none" stroke-width="1" fill="none" fill-rule="evenodd">
        <path d="M15.2793483,16 L9.72065171,16 C8.7254575,16 0,16.1406251 0,21 L0,28 L25,28 L25,21 C25,16.1406251 16.2745425,16 15.2793483,16 Z M23.1481481,26 L1.85185185,26 L1.85185185,21 C1.85185185,18.7389323 7.13173198,18.0026041 9.68848333,18 L15.3115167,18 C17.868268,18 23.1481481,18.7330729 23.1481481,21 L23.1481481,26 Z" id="Shape" stroke="#FFFFFF" stroke-width="0.5" fill="#FFFFFF" fill-rule="nonzero"></path>
        <path d="M12.5,14 C16.6421864,14 20,10.8659612 20,7 C20,3.13395939 16.6421864,0 12.5,0 C8.35789874,0 5,3.13395939 5,7 C5,10.8659612 8.35789874,14 12.5,14 Z M12.5,1.95348837 C15.4813828,1.95348837 17.9069767,4.21729658 17.9069767,7 C17.9069767,9.78262398 15.4813828,12.0465116 12.5,12.0465116 C9.51861716,12.0465116 7.09302326,9.78262398 7.09302326,7 C7.09302326,4.21729658 9.51861716,1.95348837 12.5,1.95348837 Z" id="Shape" stroke="#FFFFFF" stroke-width="0.5" fill="#FFFFFF" fill-rule="nonzero"></path>
    </g>
</svg>